<?xml version="1.0" encoding="UTF-8" standalone="no"?>
<!DOCTYPE svg PUBLIC "-//W3C//DTD SVG 1.1//EN" "http://www.w3.org/Graphics/SVG/1.1/DTD/svg11.dtd">
<svg xmlns="http://www.w3.org/2000/svg" version="1.1" viewBox="0.00 0.00 317.00 322.00">
<g stroke-width="2.00" fill="none" stroke-linecap="butt">
<path stroke="#838282" vector-effect="non-scaling-stroke" d="
  M 51.19 16.93
  A 24.44 24.44 0.0 0 0 26.75 41.37
  L 26.75 276.56
  A 24.44 24.44 0.0 0 0 51.19 301.00
  L 272.95 301.00
  A 24.44 24.44 0.0 0 0 297.39 276.56
  L 297.39 41.37
  A 24.44 24.44 0.0 0 0 272.95 16.93
  L 51.19 16.93"
/>
<path stroke="#243239" vector-effect="non-scaling-stroke" d="
  M 32.65 37.46
  L 35.48 29.07
  A 0.02 0.02 0.0 0 0 35.46 29.05
  Q 35.44 29.06 35.29 29.28
  Q 33.30 32.42 32.53 37.43
  A 0.06 0.06 0.0 0 0 32.65 37.46"
/>
<path stroke="#838282" vector-effect="non-scaling-stroke" d="
  M 284.81 41.95
  A 12.37 12.37 0.0 0 0 272.44 29.58
  L 51.70 29.58
  A 12.37 12.37 0.0 0 0 39.33 41.95
  L 39.33 275.87
  A 12.37 12.37 0.0 0 0 51.70 288.24
  L 272.44 288.24
  A 12.37 12.37 0.0 0 0 284.81 275.87
  L 284.81 41.95"
/>
<path stroke="#3a474f" vector-effect="non-scaling-stroke" d="
  M 289.2099 275.4269
  A 2.33 0.13 -83.1 0 0 288.8009 277.7244
  A 2.33 0.13 -83.1 0 0 288.6501 280.0531
  A 2.33 0.13 -83.1 0 0 289.0591 277.7556
  A 2.33 0.13 -83.1 0 0 289.2099 275.4269"
/>
<path stroke="#3a474f" vector-effect="non-scaling-stroke" d="
  M 287.87 282.18
  Q 287.78 282.28 287.74 282.56
  A 0.30 0.29 -33.9 0 0 288.32 282.67
  Q 288.39 282.41 288.28 282.22
  A 0.25 0.25 0.0 0 0 287.87 282.18"
/>
<path stroke="#243239" vector-effect="non-scaling-stroke" d="
  M 287.18 284.96
  Q 287.47 284.66 287.67 284.03
  A 0.18 0.18 0.0 0 0 287.35 283.88
  Q 286.88 284.61 286.85 284.78
  A 0.20 0.19 73.4 0 0 287.18 284.96"
/>
<path stroke="#838282" vector-effect="non-scaling-stroke" d="
  M 244.68 202.01
  C 247.10 201.62 250.62 201.82 253.49 200.84
  Q 260.22 198.54 264.33 193.09
  Q 266.45 190.29 266.45 188.95
  Q 266.52 172.60 266.45 156.78
  A 2.88 2.82 -53.9 0 0 266.33 155.96
  Q 264.53 150.20 259.85 147.17
  C 254.40 143.63 250.77 143.10 244.52 142.94
  A 0.63 0.63 0.0 0 1 243.90 142.30
  Q 243.98 136.14 243.98 135.92
  C 244.02 129.00 241.21 121.50 237.25 116.26
  Q 229.93 106.56 218.11 102.85
  Q 213.77 101.49 205.29 101.62
  Q 194.12 101.79 169.39 101.64
  A 1.03 1.02 89.7 0 1 168.37 100.62
  Q 168.34 95.29 168.32 89.98
  C 168.31 87.52 168.98 85.99 170.97 84.71
  C 180.67 78.48 184.93 66.73 179.27 56.26
  C 169.52 38.22 144.43 45.06 142.80 64.18
  C 142.08 72.58 145.95 79.96 153.36 84.55
  Q 156.41 86.45 156.35 89.94
  Q 156.35 90.05 156.40 100.36
  A 1.31 1.30 90.0 0 1 155.10 101.67
  Q 119.77 101.71 118.83 101.67
  Q 110.68 101.38 105.81 103.03
  C 93.02 107.37 83.97 116.68 80.92 129.94
  C 80.03 133.80 80.29 138.33 80.37 142.25
  A 0.71 0.71 0.0 0 1 79.74 142.97
  Q 76.33 143.37 73.64 143.64
  Q 70.73 143.93 65.58 146.35
  Q 60.19 148.89 58.24 155.93
  A 2.84 2.67 54.5 0 0 58.14 156.67
  L 58.14 188.72
  A 3.75 3.73 31.4 0 0 58.56 190.44
  Q 62.95 198.82 72.11 200.88
  Q 77.30 202.05 80.02 202.11
  A 0.64 0.63 88.0 0 1 80.64 202.69
  Q 80.89 205.45 80.43 210.39
  C 78.78 227.95 89.80 244.08 106.48 249.08
  Q 112.06 250.75 126.20 250.64
  Q 157.30 250.39 197.11 250.56
  Q 212.70 250.63 216.35 249.87
  C 230.91 246.82 241.76 234.51 244.16 219.80
  C 245.01 214.60 243.29 207.22 244.00 202.70
  A 0.83 0.83 0.0 0 1 244.68 202.01"
/>
<path stroke="#855107" vector-effect="non-scaling-stroke" d="
  M 163.0381 57.7055
  A 8.26 7.87 -85.5 0 0 154.5443 65.3225
  A 8.26 7.87 -85.5 0 0 161.7419 74.1745
  A 8.26 7.87 -85.5 0 0 170.2357 66.5575
  A 8.26 7.87 -85.5 0 0 163.0381 57.7055"
/>
<path stroke="#6f7274" vector-effect="non-scaling-stroke" d="
  M 150.75 112.93
  Q 123.22 113.03 116.50 112.91
  C 105.45 112.73 96.54 119.21 92.40 129.33
  Q 90.91 132.98 91.12 140.33
  Q 91.25 144.79 91.15 208.70
  Q 91.13 218.14 92.52 222.12
  C 95.78 231.43 105.27 239.43 115.75 239.52
  Q 128.92 239.63 200.77 239.55
  Q 211.08 239.53 212.22 239.36
  C 226.23 237.22 235.08 224.93 233.26 210.50
  Q 233.10 209.23 233.09 206.01
  Q 233.05 176.32 233.15 147.11
  C 233.19 134.74 233.43 126.92 225.06 119.26
  Q 218.08 112.85 210.51 112.86
  Q 151.74 112.93 150.75 112.93"
/>
<path stroke="#243239" vector-effect="non-scaling-stroke" d="
  M 80.32 190.80
  L 80.38 154.02
  A 0.25 0.25 0.0 0 0 80.13 153.77
  L 76.24 153.76
  A 7.86 6.50 0.1 0 0 68.37 160.25
  L 68.33 184.53
  A 7.86 6.50 0.1 0 0 76.18 191.04
  L 80.07 191.05
  A 0.25 0.25 0.0 0 0 80.32 190.80"
/>
<path stroke="#3a474f" vector-effect="non-scaling-stroke" d="
  M 243.99 154.52
  L 243.87 190.32
  A 0.84 0.84 0.0 0 0 244.70 191.16
  L 248.20 191.17
  A 7.84 7.26 0.2 0 0 256.07 183.94
  L 256.15 160.98
  A 7.84 7.26 0.2 0 0 248.34 153.69
  L 244.84 153.68
  A 0.84 0.84 0.0 0 0 243.99 154.52"
/>
<path stroke="#6f7274" vector-effect="non-scaling-stroke" d="
  M 109.35 161.56
  Q 109.58 166.63 110.92 169.99
  C 113.74 177.02 120.73 181.24 128.44 180.89
  C 136.16 180.55 142.74 175.72 144.92 168.46
  Q 145.96 165.00 145.73 159.93
  Q 145.50 154.86 144.16 151.50
  C 141.34 144.46 134.35 140.24 126.64 140.59
  C 118.92 140.94 112.34 145.76 110.16 153.02
  Q 109.12 156.49 109.35 161.56"
/>
<path stroke="#6f7274" vector-effect="non-scaling-stroke" d="
  M 179.30 161.29
  Q 179.45 166.35 180.74 169.73
  C 183.45 176.79 190.36 181.11 198.07 180.88
  C 205.78 180.65 212.42 175.93 214.70 168.72
  Q 215.79 165.27 215.64 160.21
  Q 215.49 155.14 214.20 151.77
  C 211.49 144.70 204.58 140.39 196.87 140.62
  C 189.16 140.84 182.52 145.56 180.24 152.78
  Q 179.15 156.22 179.30 161.29"
/>
<path stroke="#6f7274" vector-effect="non-scaling-stroke" d="
  M 198.94 200.56
  C 198.75 196.63 196.28 194.58 192.43 194.59
  Q 162.29 194.74 132.41 194.63
  Q 129.39 194.62 128.70 194.93
  C 121.42 198.24 125.74 209.62 128.91 214.13
  Q 134.00 221.37 142.69 226.13
  C 155.89 233.36 172.46 232.86 184.85 224.34
  C 193.20 218.61 199.44 211.18 198.94 200.56"
/>
<path stroke="#838282" vector-effect="non-scaling-stroke" d="
  M 127.3650 152.1000
  A 8.61 6.29 -89.9 0 0 121.0600 160.6990
  A 8.61 6.29 -89.9 0 0 127.3350 169.3200
  A 8.61 6.29 -89.9 0 0 133.6400 160.7210
  A 8.61 6.29 -89.9 0 0 127.3650 152.1000"
/>
<path stroke="#838282" vector-effect="non-scaling-stroke" d="
  M 197.4399 152.1001
  A 8.61 6.25 -90.2 0 0 191.2200 160.7318
  A 8.61 6.25 -90.2 0 0 197.5001 169.3199
  A 8.61 6.25 -90.2 0 0 203.7200 160.6882
  A 8.61 6.25 -90.2 0 0 197.4399 152.1001"
/>
<path stroke="#855107" vector-effect="non-scaling-stroke" d="
  M 162.14 220.94
  C 172.37 220.94 183.46 215.47 188.51 206.05
  A 0.69 0.69 0.0 0 0 187.93 205.04
  Q 186.49 204.97 162.14 204.97
  Q 137.79 204.97 136.34 205.04
  A 0.69 0.69 0.0 0 0 135.76 206.05
  C 140.81 215.47 151.91 220.94 162.14 220.94"
/>
</g>
<path fill="#fbf9f6" d="
  M 317.00 0.00
  L 317.00 322.00
  L 0.00 322.00
  L 0.00 0.00
  L 317.00 0.00
  Z
  M 51.19 16.93
  A 24.44 24.44 0.0 0 0 26.75 41.37
  L 26.75 276.56
  A 24.44 24.44 0.0 0 0 51.19 301.00
  L 272.95 301.00
  A 24.44 24.44 0.0 0 0 297.39 276.56
  L 297.39 41.37
  A 24.44 24.44 0.0 0 0 272.95 16.93
  L 51.19 16.93
  Z"
/>
<path fill="#0b0b0d" d="
  M 51.19 16.93
  L 272.95 16.93
  A 24.44 24.44 0.0 0 1 297.39 41.37
  L 297.39 276.56
  A 24.44 24.44 0.0 0 1 272.95 301.00
  L 51.19 301.00
  A 24.44 24.44 0.0 0 1 26.75 276.56
  L 26.75 41.37
  A 24.44 24.44 0.0 0 1 51.19 16.93
  Z
  M 32.65 37.46
  L 35.48 29.07
  A 0.02 0.02 0.0 0 0 35.46 29.05
  Q 35.44 29.06 35.29 29.28
  Q 33.30 32.42 32.53 37.43
  A 0.06 0.06 0.0 0 0 32.65 37.46
  Z
  M 284.81 41.95
  A 12.37 12.37 0.0 0 0 272.44 29.58
  L 51.70 29.58
  A 12.37 12.37 0.0 0 0 39.33 41.95
  L 39.33 275.87
  A 12.37 12.37 0.0 0 0 51.70 288.24
  L 272.44 288.24
  A 12.37 12.37 0.0 0 0 284.81 275.87
  L 284.81 41.95
  Z
  M 289.2099 275.4269
  A 2.33 0.13 -83.1 0 0 288.8009 277.7244
  A 2.33 0.13 -83.1 0 0 288.6501 280.0531
  A 2.33 0.13 -83.1 0 0 289.0591 277.7556
  A 2.33 0.13 -83.1 0 0 289.2099 275.4269
  Z
  M 287.87 282.18
  Q 287.78 282.28 287.74 282.56
  A 0.30 0.29 -33.9 0 0 288.32 282.67
  Q 288.39 282.41 288.28 282.22
  A 0.25 0.25 0.0 0 0 287.87 282.18
  Z
  M 287.18 284.96
  Q 287.47 284.66 287.67 284.03
  A 0.18 0.18 0.0 0 0 287.35 283.88
  Q 286.88 284.61 286.85 284.78
  A 0.20 0.19 73.4 0 0 287.18 284.96
  Z"
/>
<path fill="#3c5864" d="
  M 32.53 37.43
  Q 33.30 32.42 35.29 29.28
  Q 35.44 29.06 35.46 29.05
  A 0.02 0.02 0.0 0 1 35.48 29.07
  L 32.65 37.46
  A 0.06 0.06 0.0 0 1 32.53 37.43
  Z"
/>
<path fill="#fbf9f6" d="
  M 284.81 275.87
  A 12.37 12.37 0.0 0 1 272.44 288.24
  L 51.70 288.24
  A 12.37 12.37 0.0 0 1 39.33 275.87
  L 39.33 41.95
  A 12.37 12.37 0.0 0 1 51.70 29.58
  L 272.44 29.58
  A 12.37 12.37 0.0 0 1 284.81 41.95
  L 284.81 275.87
  Z
  M 244.68 202.01
  C 247.10 201.62 250.62 201.82 253.49 200.84
  Q 260.22 198.54 264.33 193.09
  Q 266.45 190.29 266.45 188.95
  Q 266.52 172.60 266.45 156.78
  A 2.88 2.82 -53.9 0 0 266.33 155.96
  Q 264.53 150.20 259.85 147.17
  C 254.40 143.63 250.77 143.10 244.52 142.94
  A 0.63 0.63 0.0 0 1 243.90 142.30
  Q 243.98 136.14 243.98 135.92
  C 244.02 129.00 241.21 121.50 237.25 116.26
  Q 229.93 106.56 218.11 102.85
  Q 213.77 101.49 205.29 101.62
  Q 194.12 101.79 169.39 101.64
  A 1.03 1.02 89.7 0 1 168.37 100.62
  Q 168.34 95.29 168.32 89.98
  C 168.31 87.52 168.98 85.99 170.97 84.71
  C 180.67 78.48 184.93 66.73 179.27 56.26
  C 169.52 38.22 144.43 45.06 142.80 64.18
  C 142.08 72.58 145.95 79.96 153.36 84.55
  Q 156.41 86.45 156.35 89.94
  Q 156.35 90.05 156.40 100.36
  A 1.31 1.30 90.0 0 1 155.10 101.67
  Q 119.77 101.71 118.83 101.67
  Q 110.68 101.38 105.81 103.03
  C 93.02 107.37 83.97 116.68 80.92 129.94
  C 80.03 133.80 80.29 138.33 80.37 142.25
  A 0.71 0.71 0.0 0 1 79.74 142.97
  Q 76.33 143.37 73.64 143.64
  Q 70.73 143.93 65.58 146.35
  Q 60.19 148.89 58.24 155.93
  A 2.84 2.67 54.5 0 0 58.14 156.67
  L 58.14 188.72
  A 3.75 3.73 31.4 0 0 58.56 190.44
  Q 62.95 198.82 72.11 200.88
  Q 77.30 202.05 80.02 202.11
  A 0.64 0.63 88.0 0 1 80.64 202.69
  Q 80.89 205.45 80.43 210.39
  C 78.78 227.95 89.80 244.08 106.48 249.08
  Q 112.06 250.75 126.20 250.64
  Q 157.30 250.39 197.11 250.56
  Q 212.70 250.63 216.35 249.87
  C 230.91 246.82 241.76 234.51 244.16 219.80
  C 245.01 214.60 243.29 207.22 244.00 202.70
  A 0.83 0.83 0.0 0 1 244.68 202.01
  Z"
/>
<path fill="#0b0b0d" d="
  M 244.00 202.70
  C 243.29 207.22 245.01 214.60 244.16 219.80
  C 241.76 234.51 230.91 246.82 216.35 249.87
  Q 212.70 250.63 197.11 250.56
  Q 157.30 250.39 126.20 250.64
  Q 112.06 250.75 106.48 249.08
  C 89.80 244.08 78.78 227.95 80.43 210.39
  Q 80.89 205.45 80.64 202.69
  A 0.64 0.63 88.0 0 0 80.02 202.11
  Q 77.30 202.05 72.11 200.88
  Q 62.95 198.82 58.56 190.44
  A 3.75 3.73 31.4 0 1 58.14 188.72
  L 58.14 156.67
  A 2.84 2.67 54.5 0 1 58.24 155.93
  Q 60.19 148.89 65.58 146.35
  Q 70.73 143.93 73.64 143.64
  Q 76.33 143.37 79.74 142.97
  A 0.71 0.71 0.0 0 0 80.37 142.25
  C 80.29 138.33 80.03 133.80 80.92 129.94
  C 83.97 116.68 93.02 107.37 105.81 103.03
  Q 110.68 101.38 118.83 101.67
  Q 119.77 101.71 155.10 101.67
  A 1.31 1.30 -90.0 0 0 156.40 100.36
  Q 156.35 90.05 156.35 89.94
  Q 156.41 86.45 153.36 84.55
  C 145.95 79.96 142.08 72.58 142.80 64.18
  C 144.43 45.06 169.52 38.22 179.27 56.26
  C 184.93 66.73 180.67 78.48 170.97 84.71
  C 168.98 85.99 168.31 87.52 168.32 89.98
  Q 168.34 95.29 168.37 100.62
  A 1.03 1.02 89.7 0 0 169.39 101.64
  Q 194.12 101.79 205.29 101.62
  Q 213.77 101.49 218.11 102.85
  Q 229.93 106.56 237.25 116.26
  C 241.21 121.50 244.02 129.00 243.98 135.92
  Q 243.98 136.14 243.90 142.30
  A 0.63 0.63 0.0 0 0 244.52 142.94
  C 250.77 143.10 254.40 143.63 259.85 147.17
  Q 264.53 150.20 266.33 155.96
  A 2.88 2.82 -53.9 0 1 266.45 156.78
  Q 266.52 172.60 266.45 188.95
  Q 266.45 190.29 264.33 193.09
  Q 260.22 198.54 253.49 200.84
  C 250.62 201.82 247.10 201.62 244.68 202.01
  A 0.83 0.83 0.0 0 0 244.00 202.70
  Z
  M 163.0381 57.7055
  A 8.26 7.87 -85.5 0 0 154.5443 65.3225
  A 8.26 7.87 -85.5 0 0 161.7419 74.1745
  A 8.26 7.87 -85.5 0 0 170.2357 66.5575
  A 8.26 7.87 -85.5 0 0 163.0381 57.7055
  Z
  M 150.75 112.93
  Q 123.22 113.03 116.50 112.91
  C 105.45 112.73 96.54 119.21 92.40 129.33
  Q 90.91 132.98 91.12 140.33
  Q 91.25 144.79 91.15 208.70
  Q 91.13 218.14 92.52 222.12
  C 95.78 231.43 105.27 239.43 115.75 239.52
  Q 128.92 239.63 200.77 239.55
  Q 211.08 239.53 212.22 239.36
  C 226.23 237.22 235.08 224.93 233.26 210.50
  Q 233.10 209.23 233.09 206.01
  Q 233.05 176.32 233.15 147.11
  C 233.19 134.74 233.43 126.92 225.06 119.26
  Q 218.08 112.85 210.51 112.86
  Q 151.74 112.93 150.75 112.93
  Z
  M 80.32 190.80
  L 80.38 154.02
  A 0.25 0.25 0.0 0 0 80.13 153.77
  L 76.24 153.76
  A 7.86 6.50 0.1 0 0 68.37 160.25
  L 68.33 184.53
  A 7.86 6.50 0.1 0 0 76.18 191.04
  L 80.07 191.05
  A 0.25 0.25 0.0 0 0 80.32 190.80
  Z
  M 243.99 154.52
  L 243.87 190.32
  A 0.84 0.84 0.0 0 0 244.70 191.16
  L 248.20 191.17
  A 7.84 7.26 0.2 0 0 256.07 183.94
  L 256.15 160.98
  A 7.84 7.26 0.2 0 0 248.34 153.69
  L 244.84 153.68
  A 0.84 0.84 0.0 0 0 243.99 154.52
  Z"
/>
<ellipse fill="#fe9600" cx="0.00" cy="0.00" transform="translate(162.39,65.94) rotate(-85.5)" rx="8.26" ry="7.87"/>
<path fill="#d3d9db" d="
  M 150.75 112.93
  Q 151.74 112.93 210.51 112.86
  Q 218.08 112.85 225.06 119.26
  C 233.43 126.92 233.19 134.74 233.15 147.11
  Q 233.05 176.32 233.09 206.01
  Q 233.10 209.23 233.26 210.50
  C 235.08 224.93 226.23 237.22 212.22 239.36
  Q 211.08 239.53 200.77 239.55
  Q 128.92 239.63 115.75 239.52
  C 105.27 239.43 95.78 231.43 92.52 222.12
  Q 91.13 218.14 91.15 208.70
  Q 91.25 144.79 91.12 140.33
  Q 90.91 132.98 92.40 129.33
  C 96.54 119.21 105.45 112.73 116.50 112.91
  Q 123.22 113.03 150.75 112.93
  Z
  M 109.35 161.56
  Q 109.58 166.63 110.92 169.99
  C 113.74 177.02 120.73 181.24 128.44 180.89
  C 136.16 180.55 142.74 175.72 144.92 168.46
  Q 145.96 165.00 145.73 159.93
  Q 145.50 154.86 144.16 151.50
  C 141.34 144.46 134.35 140.24 126.64 140.59
  C 118.92 140.94 112.34 145.76 110.16 153.02
  Q 109.12 156.49 109.35 161.56
  Z
  M 179.30 161.29
  Q 179.45 166.35 180.74 169.73
  C 183.45 176.79 190.36 181.11 198.07 180.88
  C 205.78 180.65 212.42 175.93 214.70 168.72
  Q 215.79 165.27 215.64 160.21
  Q 215.49 155.14 214.20 151.77
  C 211.49 144.70 204.58 140.39 196.87 140.62
  C 189.16 140.84 182.52 145.56 180.24 152.78
  Q 179.15 156.22 179.30 161.29
  Z
  M 198.94 200.56
  C 198.75 196.63 196.28 194.58 192.43 194.59
  Q 162.29 194.74 132.41 194.63
  Q 129.39 194.62 128.70 194.93
  C 121.42 198.24 125.74 209.62 128.91 214.13
  Q 134.00 221.37 142.69 226.13
  C 155.89 233.36 172.46 232.86 184.85 224.34
  C 193.20 218.61 199.44 211.18 198.94 200.56
  Z"
/>
<path fill="#0b0b0d" d="
  M 109.35 161.56
  Q 109.12 156.49 110.16 153.02
  C 112.34 145.76 118.92 140.94 126.64 140.59
  C 134.35 140.24 141.34 144.46 144.16 151.50
  Q 145.50 154.86 145.73 159.93
  Q 145.96 165.00 144.92 168.46
  C 142.74 175.72 136.16 180.55 128.44 180.89
  C 120.73 181.24 113.74 177.02 110.92 169.99
  Q 109.58 166.63 109.35 161.56
  Z
  M 127.3650 152.1000
  A 8.61 6.29 -89.9 0 0 121.0600 160.6990
  A 8.61 6.29 -89.9 0 0 127.3350 169.3200
  A 8.61 6.29 -89.9 0 0 133.6400 160.7210
  A 8.61 6.29 -89.9 0 0 127.3650 152.1000
  Z"
/>
<path fill="#0b0b0d" d="
  M 196.87 140.62
  C 204.58 140.39 211.49 144.70 214.20 151.77
  Q 215.49 155.14 215.64 160.21
  Q 215.79 165.27 214.70 168.72
  C 212.42 175.93 205.78 180.65 198.07 180.88
  C 190.36 181.11 183.45 176.79 180.74 169.73
  Q 179.45 166.35 179.30 161.29
  Q 179.15 156.22 180.24 152.78
  C 182.52 145.56 189.16 140.84 196.87 140.62
  Z
  M 197.4399 152.1001
  A 8.61 6.25 -90.2 0 0 191.2200 160.7318
  A 8.61 6.25 -90.2 0 0 197.5001 169.3199
  A 8.61 6.25 -90.2 0 0 203.7200 160.6882
  A 8.61 6.25 -90.2 0 0 197.4399 152.1001
  Z"
/>
<ellipse fill="#fbf9f6" cx="0.00" cy="0.00" transform="translate(127.35,160.71) rotate(-89.9)" rx="8.61" ry="6.29"/>
<ellipse fill="#fbf9f6" cx="0.00" cy="0.00" transform="translate(197.47,160.71) rotate(-90.2)" rx="8.61" ry="6.25"/>
<path fill="#3c5864" d="
  M 80.32 190.80
  A 0.25 0.25 0.0 0 1 80.07 191.05
  L 76.18 191.04
  A 7.86 6.50 0.1 0 1 68.33 184.53
  L 68.37 160.25
  A 7.86 6.50 0.1 0 1 76.24 153.76
  L 80.13 153.77
  A 0.25 0.25 0.0 0 1 80.38 154.02
  L 80.32 190.80
  Z"
/>
<path fill="#688391" d="
  M 243.99 154.52
  A 0.84 0.84 0.0 0 1 244.84 153.68
  L 248.34 153.69
  A 7.84 7.26 0.2 0 1 256.15 160.98
  L 256.07 183.94
  A 7.84 7.26 0.2 0 1 248.20 191.17
  L 244.70 191.16
  A 0.84 0.84 0.0 0 1 243.87 190.32
  L 243.99 154.52
  Z"
/>
<path fill="#0b0b0d" d="
  M 192.43 194.59
  C 196.28 194.58 198.75 196.63 198.94 200.56
  C 199.44 211.18 193.20 218.61 184.85 224.34
  C 172.46 232.86 155.89 233.36 142.69 226.13
  Q 134.00 221.37 128.91 214.13
  C 125.74 209.62 121.42 198.24 128.70 194.93
  Q 129.39 194.62 132.41 194.63
  Q 162.29 194.74 192.43 194.59
  Z
  M 162.14 220.94
  C 172.37 220.94 183.46 215.47 188.51 206.05
  A 0.69 0.69 0.0 0 0 187.93 205.04
  Q 186.49 204.97 162.14 204.97
  Q 137.79 204.97 136.34 205.04
  A 0.69 0.69 0.0 0 0 135.76 206.05
  C 140.81 215.47 151.91 220.94 162.14 220.94
  Z"
/>
<path fill="#fe9600" d="
  M 162.14 204.97
  Q 186.49 204.97 187.93 205.04
  A 0.69 0.69 0.0 0 1 188.51 206.05
  C 183.46 215.47 172.37 220.94 162.14 220.94
  C 151.91 220.94 140.81 215.47 135.76 206.05
  A 0.69 0.69 0.0 0 1 136.34 205.04
  Q 137.79 204.97 162.14 204.97
  Z"
/>
<ellipse fill="#688391" cx="0.00" cy="0.00" transform="translate(288.93,277.74) rotate(-83.1)" rx="2.33" ry="0.13"/>
<path fill="#688391" d="
  M 288.28 282.22
  Q 288.39 282.41 288.32 282.67
  A 0.30 0.29 -33.9 0 1 287.74 282.56
  Q 287.78 282.28 287.87 282.18
  A 0.25 0.25 0.0 0 1 288.28 282.22
  Z"
/>
<path fill="#3c5864" d="
  M 286.85 284.78
  Q 286.88 284.61 287.35 283.88
  A 0.18 0.18 0.0 0 1 287.67 284.03
  Q 287.47 284.66 287.18 284.96
  A 0.20 0.19 73.4 0 1 286.85 284.78
  Z"
/>
</svg>
